<svg width="500" height="180" viewBox="0 0 128 56" version="1.1" xmlns="http://www.w3.org/2000/svg" xmlns:xlink="http://www.w3.org/1999/xlink">
<title>logo</title>
<desc>Created using Figma</desc>
<g id="Canvas" transform="translate(127 -62)">
<g id="logo">
<g id="Vector">
<use xlink:href="#path0_fill" transform="translate(-2.04 78.8799)" fill="#002337"/>
</g>
<g id="Vector">
<use xlink:href="#path1_fill" transform="translate(-108.19 91.06)" fill="#47BAEC"/>
</g>
<g id="Vector">
<use xlink:href="#path2_fill" transform="translate(-92.15 110.17)" fill="#00ABE7"/>
</g>
<g id="Vector">
<use xlink:href="#path3_fill" transform="translate(-62.41 78.4202)" fill="#002337"/>
</g>
<g id="Vector">
<use xlink:href="#path4_fill" transform="translate(-42.6899 78.43)" fill="#002337"/>
</g>
<g id="Vector">
<use xlink:href="#path5_fill" transform="translate(-84.0609 78.43)" fill="#002337"/>
</g>
<g id="Vector">
<use xlink:href="#path6_fill" transform="translate(-23.5805 78.8695)" fill="#002337"/>
</g>
<g id="Vector">
<use xlink:href="#path7_fill" transform="translate(-101.95 78.8099)" fill="#002337"/>
</g>
<g id="Vector">
<use xlink:href="#path8_fill" transform="translate(-90.82 66.05)" fill="#54BAEB"/>
</g>
<g id="Vector">
<use xlink:href="#path9_fill" transform="translate(-91.08 67.18)" fill="#54BAEB"/>
</g>
<g id="Vector">
<use xlink:href="#path10_fill" transform="translate(-90.87 66.44)" fill="#54BAEB"/>
</g>
<g id="Vector">
<use xlink:href="#path11_fill" transform="translate(-90.96 66.82)" fill="#54BAEB"/>
</g>
<g id="Vector">
<use xlink:href="#path12_fill" transform="translate(-91.25 67.54)" fill="#54BAEB"/>
</g>
<g id="Vector">
<use xlink:href="#path13_fill" transform="translate(-91.02 66.99)" fill="#54BAEB"/>
</g>
<g id="Vector">
<use xlink:href="#path14_fill" transform="translate(-91.15 67.37)" fill="#54BAEB"/>
</g>
<g id="Vector">
<use xlink:href="#path15_fill" transform="translate(-126.04 78.08)" fill="#47BAEC"/>
</g>
<g id="Vector">
<use xlink:href="#path16_fill" transform="translate(-125.73 62.23)" fill="#A2C617"/>
</g>
<g id="Vector">
<use xlink:href="#path17_fill" transform="translate(-126.991 72.5203)" fill="#8DBE23"/>
</g>
<g id="Vector">
<use xlink:href="#path18_fill" transform="translate(-119.879 92.23)" fill="#A2C617"/>
</g>
<g id="Vector">
<use xlink:href="#path19_fill" transform="translate(-109.8 67.74)" fill="#A2C617"/>
</g>
<g id="Vector">
<use xlink:href="#path20_fill" transform="translate(-113.82 84.99)" fill="#6CB52D"/>
</g>
<g id="Vector">
<use xlink:href="#path21_fill" transform="translate(-90.91 66.61)" fill="#54BAEB"/>
</g>
<g id="Vector">
<use xlink:href="#path22_fill" transform="translate(-90.84 66.25)" fill="#54BAEB"/>
</g>
<g id="Vector">
<use xlink:href="#path23_fill" transform="translate(-103.33 62.0197)" fill="#8DBE23"/>
</g>
<g id="Vector">
<use xlink:href="#path24_fill" transform="translate(-119.88 100.33)" fill="#6CB52D"/>
</g>
<g id="Vector">
<use xlink:href="#path24_fill" transform="translate(-98.66 62)" fill="#6CB52D"/>
</g>
<g id="Vector">
<use xlink:href="#path24_fill" transform="translate(-127 72.5)" fill="#6CB52D"/>
</g>
<g id="Vector">
<use xlink:href="#path25_fill" transform="translate(-101.95 78.81)" fill="#5EA62B"/>
</g>
<g id="Vector">
<use xlink:href="#path26_fill" transform="translate(-41.39 111.07)" fill="#FFFFFF"/>
</g>
<g id="Vector">
<use xlink:href="#path27_fill" transform="translate(-41.45 111.06)" fill="#FFFFFF"/>
</g>
<g id="Vector">
<use xlink:href="#path28_fill" transform="translate(-43.02 111.05)" fill="#FFFFFF"/>
</g>
<g id="Vector">
<use xlink:href="#path29_fill" transform="translate(-41.53 111.05)" fill="#FFFFFF"/>
</g>
<g id="Vector">
<use xlink:href="#path30_fill" transform="translate(-41.46 111.05)" fill="#FFFFFF"/>
</g>
<g id="Vector">
<use xlink:href="#path31_fill" transform="translate(-41.66 111.05)" fill="#FFFFFF"/>
</g>
</g>
</g>
<defs>
<path id="path0_fill" d="M 3.035 1.47207C 3.035 2.31207 2.379 2.96707 1.522 2.96707C 0.672 2.96707 0 2.31107 0 1.47207C 0 0.656072 0.673 7.2398e-05 1.522 7.2398e-05C 2.371 -0.0079276 3.035 0.648072 3.035 1.47207ZM 0.376 1.47207C 0.376 2.12707 0.865 2.64707 1.53 2.64707C 2.178 2.64707 2.659 2.12707 2.659 1.48007C 2.659 0.824072 2.179 0.296072 1.522 0.296072C 0.857 0.288072 0.376 0.824072 0.376 1.47207L 0.376 1.47207ZM 1.281 2.23907L 0.937 2.23907L 0.937 0.768072C 1.073 0.744072 1.257 0.720072 1.506 0.720072C 1.786 0.720072 1.914 0.768072 2.018 0.832072C 2.098 0.896072 2.162 1.00807 2.162 1.15207C 2.162 1.31207 2.034 1.44007 1.858 1.49607L 1.858 1.51207C 2.002 1.56807 2.082 1.67207 2.13 1.87207C 2.178 2.09507 2.202 2.18307 2.243 2.23907L 1.874 2.23907C 1.826 2.18307 1.802 2.04707 1.754 1.87907C 1.73 1.71907 1.634 1.64807 1.45 1.64807L 1.29 1.64807L 1.29 2.23907L 1.28 2.23907L 1.281 2.23907ZM 1.289 1.40807L 1.449 1.40807C 1.642 1.40807 1.794 1.34407 1.794 1.19207C 1.794 1.05607 1.698 0.968072 1.482 0.968072C 1.394 0.968072 1.329 0.976072 1.289 0.984072L 1.289 1.40807L 1.289 1.40807Z"/>
<path id="path1_fill" d="M 22.802 20.306L 4.012 0L 0 7.23L 17.027 25.633C 17.3954 26.0319 17.8425 26.3501 18.3401 26.5675C 18.8377 26.7849 19.375 26.8967 19.918 26.896C 20.682 26.8978 21.43 26.6764 22.0699 26.259C 22.7099 25.8416 23.214 25.2464 23.5203 24.5464C 23.8266 23.8465 23.9218 23.0723 23.7942 22.319C 23.6666 21.5657 23.3218 20.866 22.802 20.306L 22.802 20.306Z"/>
<path id="path2_fill" d="M 3.9 7.79C 6.055 7.79 7.8 6.046 7.8 3.895C 7.7992 2.86136 7.3879 1.87036 6.65653 1.13993C 5.92517 0.409505 4.93364 -0.000530136 3.9 5.14418e-07C 2.86636 -0.000530136 1.87483 0.409505 1.14347 1.13993C 0.412102 1.87036 0.00079538 2.86136 0 3.895C 0.00079538 4.92864 0.412102 5.91965 1.14347 6.65007C 1.87483 7.3805 2.86636 7.79053 3.9 7.79L 3.9 7.79Z"/>
<path id="path3_fill" d="M 2.419 27.4678L 0.016 27.4678C 0.016 27.4678 0 4.90676 0 1.45176C 0 0.651756 0.216 0.403756 1.025 0.427756C 2.331 0.475756 3.395 0.859756 4.053 2.04976C 8.385 -1.41924 14.52 -0.179244 17.7 3.48276C 20.976 7.27276 21.152 12.7678 18.028 16.7268C 15.065 20.4778 9.347 22.1168 4.485 18.9108L 4.485 25.4128C 4.48027 25.9582 4.26073 26.4798 3.87399 26.8645C 3.48725 27.2492 2.96448 27.4659 2.419 27.4678L 2.419 27.4678ZM 9.899 16.1828C 10.6808 16.1925 11.4567 16.0463 12.1813 15.7529C 12.906 15.4594 13.565 15.0245 14.1197 14.4736C 14.6745 13.9226 15.1139 13.2667 15.4124 12.5441C 15.7108 11.8214 15.8623 11.0466 15.858 10.2648C 15.858 7.06576 13.207 4.40276 10.003 4.38676C 6.688 4.37076 4.013 6.99376 4.005 10.2808C 3.997 13.5358 6.623 16.1668 9.899 16.1828Z"/>
<path id="path4_fill" d="M 16.2029 2.06399C 16.9479 0.74399 18.0999 0.43299 19.4629 0.44099C 20.0469 0.44899 20.2389 0.61699 20.2309 1.19199C 20.2069 3.07199 20.2229 4.95199 20.2229 6.83099C 20.2229 10.95 20.2399 18.507 20.2399 19.179C 20.2399 19.851 20.1029 20.187 19.2939 20.171C 17.9809 20.147 16.9159 19.771 16.1939 18.523C 13.6399 20.579 10.7889 21.035 7.72093 20.299C 5.27893 19.715 3.39693 18.276 1.91493 16.292C -0.985069 12.397 -0.535068 6.75899 2.88393 3.14399C 6.10393 -0.27101 11.9659 -1.30301 16.2029 2.06399L 16.2029 2.06399ZM 10.2599 16.18C 13.6079 16.212 16.2099 13.637 16.2269 10.294C 16.2429 7.07099 13.6399 4.41499 10.4279 4.39099C 7.14493 4.35899 4.45393 6.94299 4.39793 10.174C 4.38118 10.9552 4.52031 11.7319 4.80717 12.4587C 5.09403 13.1855 5.52288 13.8479 6.06865 14.4071C 6.61443 14.9662 7.26618 15.411 7.98582 15.7154C 8.70546 16.0199 9.47856 16.1778 10.2599 16.18L 10.2599 16.18Z"/>
<path id="path5_fill" d="M 16.2039 2.06499C 16.9489 0.744987 18.1099 0.416987 19.4709 0.432987C 20.0549 0.440987 20.2389 0.624987 20.2309 1.19299C 20.2069 3.07299 20.2069 15.061 20.2389 19.172C 20.2469 19.892 20.1029 20.18 19.2939 20.164C 17.9809 20.14 16.9159 19.764 16.1939 18.516C 13.6399 20.572 10.7889 21.027 7.72093 20.292C 5.27893 19.708 3.39693 18.268 1.91493 16.285C -0.985069 12.39 -0.535069 6.75099 2.88393 3.13599C 6.10393 -0.271013 11.9579 -1.30201 16.2029 2.06499L 16.2039 2.06499ZM 10.2609 16.18C 13.6089 16.212 16.2109 13.636 16.2279 10.293C 16.2439 7.06999 13.6409 4.41499 10.4289 4.39099C 7.14593 4.35899 4.45493 6.94199 4.39893 10.173C 4.38205 10.9543 4.52107 11.7311 4.80788 12.458C 5.09468 13.1849 5.5235 13.8474 6.06929 14.4067C 6.61508 14.966 7.26687 15.4109 7.98658 15.7153C 8.70629 16.0198 9.47947 16.1778 10.2609 16.18L 10.2609 16.18Z"/>
<path id="path6_fill" d="M 4.55446 26.6335C 5.41982 24.6524 6.29817 22.677 7.18946 20.7075C 7.78946 19.3875 7.73346 18.4275 7.17346 17.1805C 4.73846 11.7805 2.39046 6.3435 0.0204594 0.920497C -0.0755406 0.696497 0.197459 0.000497208 0.197459 0.000497208L 1.19746 0.000497208C 4.69746 0.000497208 4.35346 -0.110503 5.73146 2.9845C 7.26146 6.4235 8.75846 9.8705 10.3365 13.4535C 11.2265 11.4375 12.0505 9.5505 12.8835 7.6705C 13.5805 6.0955 14.8215 3.1605 15.5585 1.4165C 15.7351 0.994113 16.0336 0.63393 16.4158 0.381907C 16.798 0.129883 17.2466 -0.00255276 17.7045 0.00149721L 20.9885 0.00149721C 20.9885 0.00149721 13.5165 17.2115 10.0165 25.2015C 8.95946 27.6175 6.88446 28.1845 4.55446 26.6335Z"/>
<path id="path7_fill" d="M 4.99 26.6881C 5.855 24.7131 7.048 22.1461 7.625 20.7621C 8.201 19.3701 8.169 18.4821 7.609 17.2351C 5.174 11.8371 0 6.82583e-05 0 6.82583e-05L 1.514 6.82583e-05C 5.014 6.82583e-05 4.797 -0.0559318 6.167 3.04007C 7.697 6.47807 9.194 9.92507 10.772 13.5081C 11.662 11.4931 12.486 9.60507 13.319 7.72607C 14.016 6.15007 15.257 3.21607 15.994 1.47207C 16.1705 1.0495 16.4689 0.689103 16.8511 0.436893C 17.2334 0.184684 17.6821 0.0521001 18.14 0.0560683L 21.424 0.0560683C 21.424 0.0560683 13.952 17.2671 10.452 25.2561C 9.395 27.6731 7.32 28.2401 4.99 26.6891L 4.99 26.6881Z"/>
<path id="path8_fill" d="M 0.008 0C 0.008 0.064 0 0.128 0 0.192C 0 0.128 0.008 0.064 0.008 0Z"/>
<path id="path9_fill" d="M 0.064 0C 0.048 0.056 0.024 0.12 0 0.176C 0.024 0.12 0.048 0.064 0.064 0Z"/>
<path id="path10_fill" d="M 0.024 0L 0 0.176L 0.024 0Z"/>
<path id="path11_fill" d="M 0.048 0L 0 0.168L 0.048 0Z"/>
<path id="path12_fill" d="M 0 0.2C 0.032 0.136 0.064 0.072 0.096 0C 0.064 0.064 0.032 0.128 0 0.2Z"/>
<path id="path13_fill" d="M 0.056 0C 0.04 0.064 0.016 0.136 0 0.2C 0.024 0.128 0.04 0.064 0.056 0Z"/>
<path id="path14_fill" d="M 0.072 0C 0.048 0.056 0.024 0.12 0 0.176C 0.024 0.112 0.048 0.056 0.072 0Z"/>
<path id="path15_fill" d="M 9.8342 0L 4.3402 2.031C 3.90466 2.19435 3.44337 2.27835 2.9782 2.279C 1.3772 2.28 -0.457797 0.432 0.103203 1.04L 12.2212 14.157L 16.2332 6.919L 9.8342 0Z"/>
<path id="path16_fill" d="M 0 11.333C 0.766512 10.6263 1.78186 10.2523 2.82362 10.2928C 3.86539 10.3332 4.84864 10.785 5.558 11.549L 9.523 15.836L 22.401 11.076L 27.543 1.816C 28.0194 0.955855 28.803 0.307279 29.737 0C 29.697 0.016 29.657 0.024 29.617 0.04L 1.297 10.509"/>
<path id="path17_fill" d="M 3.92818 7.82571C 4.38518 7.82571 4.84118 7.74571 5.29018 7.57771L 10.7842 5.54571L 6.82018 1.25971C 6.11079 0.495387 5.12733 0.0434623 4.08532 0.00297406C 3.04331 -0.0375142 2.02774 0.336737 1.26118 1.04371C 0.790636 1.47571 0.433529 2.01677 0.221306 2.61926C 0.00908323 3.22175 -0.0517441 3.86718 0.0441807 4.49871C 0.0841807 4.75471 0.148181 5.01071 0.244181 5.25871C 0.519757 6.01348 1.02134 6.66493 1.68059 7.12429C 2.33984 7.58365 3.12468 7.82858 3.92818 7.82571L 3.92818 7.82571Z"/>
<path id="path18_fill" d="M 0.471041 10.165C 0.225644 10.6191 0.0724078 11.1173 0.0201381 11.6308C -0.0321316 12.1444 0.0175955 12.6632 0.166462 13.1575C 0.315329 13.6518 0.5604 14.1117 0.887594 14.511C 1.21479 14.9103 1.61765 15.2409 2.07304 15.484C 2.52723 15.7294 3.02533 15.8829 3.53888 15.9357C 4.05242 15.9885 4.57133 15.9396 5.06596 15.7917C 5.56058 15.6439 6.02122 15.4 6.42154 15.074C 6.82187 14.7481 7.15403 14.3464 7.39904 13.892L 11.651 5.998L 6.06104 0L 0.471041 10.165Z"/>
<path id="path19_fill" d="M 5.622 23.321L 18.501 0.112C 18.525 0.072 18.541 0.032 18.557 0C 18.11 0.876615 17.3497 1.55306 16.427 1.895L 6.479 5.575L 0 17.25L 5.622 23.32L 5.622 23.321Z"/>
<path id="path20_fill" d="M 4.013 0L 0 7.246L 5.614 13.308L 9.634 6.078L 4.014 0L 4.013 0Z"/>
<path id="path21_fill" d="M 0.04 0C 0.0305308 0.0673816 0.0171752 0.13416 0 0.2C 0.016 0.136 0.024 0.072 0.04 0Z"/>
<path id="path22_fill" d="M 0.016 0C 0.008 0.064 0.008 0.128 0 0.192C 0 0.128 0.008 0.064 0.016 0Z"/>
<path id="path23_fill" d="M 12.246 5.34233C 12.27 5.28633 12.294 5.22233 12.31 5.16733C 12.334 5.10333 12.35 5.03933 12.366 4.96733L 12.414 4.79933C 12.43 4.73533 12.438 4.66333 12.454 4.59933C 12.462 4.54333 12.478 4.47933 12.478 4.42333C 12.486 4.35933 12.494 4.29533 12.494 4.23133C 12.502 4.16733 12.502 4.10333 12.502 4.03933L 12.502 3.85533C 12.502 3.78333 12.502 3.71933 12.494 3.65533C 12.486 3.59933 12.486 3.53533 12.478 3.47933L 12.454 3.27933C 12.4453 3.21707 12.432 3.15556 12.414 3.09533C 12.398 3.03133 12.39 2.97533 12.374 2.91133C 12.3575 2.84059 12.3361 2.77109 12.31 2.70333C 12.2962 2.651 12.2774 2.6001 12.254 2.55133L 12.158 2.33533C 12.134 2.28733 12.118 2.23933 12.094 2.19133C 12.062 2.12733 12.022 2.06333 11.982 1.99133C 11.957 1.94333 11.925 1.89533 11.902 1.84733C 11.8616 1.79358 11.8239 1.73784 11.789 1.68033C 11.757 1.63233 11.725 1.57633 11.685 1.52833L 11.565 1.38433C 11.525 1.33633 11.485 1.28033 11.437 1.23233L 11.317 1.11233C 11.2684 1.06224 11.2176 1.0142 11.165 0.968328L 11.045 0.872328C 10.98 0.824328 10.925 0.776328 10.86 0.728328C 10.82 0.704328 10.78 0.672328 10.74 0.648328C 10.6725 0.602783 10.6031 0.560079 10.532 0.520328C 10.484 0.496328 10.436 0.472328 10.396 0.448328C 10.324 0.416328 10.259 0.376328 10.187 0.344328L 10.02 0.272328L 9.835 0.200328C 9.77213 0.177999 9.70802 0.159302 9.643 0.144328L 9.467 0.0963275C 9.403 0.0803275 9.338 0.0723275 9.274 0.0563275C 9.21 0.0483275 9.146 0.0323275 9.09 0.0243275C 9.026 0.0163275 8.97 0.00832754 8.906 0.00832754C 8.83955 0.00167879 8.77277 -0.000992637 8.706 0.000327539L 8.53 0.000327539C 8.458 0.000327539 8.385 0.000327539 8.321 0.00832754C 8.265 0.0163275 8.209 0.0163275 8.153 0.0243275C 8.08312 0.0310876 8.01368 0.0417711 7.945 0.0563275C 7.881 0.0643275 7.825 0.0803275 7.761 0.0963275C 7.697 0.112328 7.633 0.120328 7.569 0.144328C 7.496 0.160328 7.424 0.184328 7.36 0.208328C 6.41583 0.507551 5.62213 1.15704 5.142 2.02333L 0 11.2853L 9.947 7.60533C 10.8712 7.26597 11.6324 6.58878 12.077 5.71033C 12.11 5.64633 12.142 5.58233 12.174 5.51033C 12.198 5.46233 12.222 5.39833 12.246 5.34233L 12.246 5.34233Z"/>
<path id="path24_fill" d="M 3.932 7.854C 4.44809 7.8544 4.95921 7.75313 5.43617 7.556C 5.91313 7.35886 6.3466 7.06971 6.71181 6.70505C 7.07702 6.3404 7.36683 5.90738 7.5647 5.43072C 7.76256 4.95406 7.86461 4.4431 7.865 3.927C 7.86461 3.41091 7.76256 2.89994 7.5647 2.42328C 7.36683 1.94662 7.07702 1.51361 6.71181 1.14895C 6.3466 0.784294 5.91313 0.495143 5.43617 0.298006C 4.95921 0.100869 4.44809 -0.00039297 3.932 1.14602e-06C 2.88987 -0.000529502 1.8902 0.412877 1.15284 1.1493C 0.415473 1.88573 0.000795382 2.88487 0 3.927C 0.000795382 4.96913 0.415473 5.96827 1.15284 6.7047C 1.8902 7.44113 2.88987 7.85453 3.932 7.854L 3.932 7.854Z"/>
<path id="path25_fill" d="M 1.514 2.93848e-05L 0 2.93848e-05C 0 2.93848e-05 0.84 1.93503 2.01 4.59003L 4.43 0.240029C 3.876 -0.00797062 3.059 2.93848e-05 1.514 2.93848e-05Z"/>
<path id="path26_fill" d="M 0 0C 0.017 0.009 0.025 0.017 0.042 0.026C 0.025 0.017 0.008 0.009 0 0Z"/>
<path id="path27_fill" d="M 0 0.000414081C 0.016 0.000414081 0.033 0.00841408 0.05 0.00841408C 0.0342587 0.00162837 0.0170727 -0.00112138 1.73472e-17 0.000414081L 0 0.000414081Z"/>
<path id="path28_fill" d="M 1.362 0L 0 0L 1.362 0Z"/>
<path id="path29_fill" d="M 0 0L 0.073 0L 0 0Z"/>
<path id="path30_fill" d="M 0 0L 0.018 0C 0.018 0.009 0.008 0 0 0Z"/>
<path id="path31_fill" d="M 0.128 0L 0 0L 0.128 0Z"/>
</defs>
</svg>
